<mxfile host="app.diagrams.net" modified="2023-12-19T21:59:22.697Z" agent="Mozilla/5.0 (Windows NT 10.0; Win64; x64) AppleWebKit/537.36 (KHTML, like Gecko) Chrome/120.0.0.0 Safari/537.36" etag="yWxRjUTZZmBCUsf0mz4f" version="22.1.11" type="device" pages="2">
  <diagram name="Sayfa -1" id="eKwf8i5POUbrf981azab">
    <mxGraphModel dx="1400" dy="707" grid="1" gridSize="10" guides="1" tooltips="1" connect="1" arrows="1" fold="1" page="1" pageScale="1" pageWidth="827" pageHeight="1169" math="0" shadow="0">
      <root>
        <mxCell id="0" />
        <mxCell id="1" parent="0" />
        <mxCell id="lk8GdQlvjir3y_zJ8EJS-1" value="" style="shape=umlActor;verticalLabelPosition=bottom;verticalAlign=top;html=1;outlineConnect=0;" parent="1" vertex="1">
          <mxGeometry x="67" y="440" width="32" height="60" as="geometry" />
        </mxCell>
        <mxCell id="lk8GdQlvjir3y_zJ8EJS-2" value="" style="endArrow=none;dashed=1;html=1;rounded=0;" parent="1" edge="1">
          <mxGeometry width="50" height="50" relative="1" as="geometry">
            <mxPoint x="83.47000000000003" y="530" as="sourcePoint" />
            <mxPoint x="83" y="1080" as="targetPoint" />
          </mxGeometry>
        </mxCell>
        <mxCell id="lk8GdQlvjir3y_zJ8EJS-3" value="" style="endArrow=none;dashed=1;html=1;rounded=0;" parent="1" edge="1">
          <mxGeometry width="50" height="50" relative="1" as="geometry">
            <mxPoint x="416.25" y="530" as="sourcePoint" />
            <mxPoint x="416" y="1080" as="targetPoint" />
          </mxGeometry>
        </mxCell>
        <mxCell id="lk8GdQlvjir3y_zJ8EJS-4" value="" style="endArrow=none;dashed=1;html=1;rounded=0;" parent="1" edge="1">
          <mxGeometry width="50" height="50" relative="1" as="geometry">
            <mxPoint x="744" y="530" as="sourcePoint" />
            <mxPoint x="744" y="1080" as="targetPoint" />
          </mxGeometry>
        </mxCell>
        <mxCell id="lk8GdQlvjir3y_zJ8EJS-5" value="&lt;b style=&quot;border-color: var(--border-color);&quot;&gt;&lt;font style=&quot;border-color: var(--border-color); font-size: 14px;&quot;&gt;:System&lt;/font&gt;&lt;/b&gt;" style="rounded=0;whiteSpace=wrap;html=1;" parent="1" vertex="1">
          <mxGeometry x="367.5" y="500" width="100" height="30" as="geometry" />
        </mxCell>
        <mxCell id="lk8GdQlvjir3y_zJ8EJS-6" value="&lt;b style=&quot;border-color: var(--border-color);&quot;&gt;&lt;font style=&quot;border-color: var(--border-color); font-size: 14px;&quot;&gt;:Advisor&lt;/font&gt;&lt;/b&gt;" style="rounded=0;whiteSpace=wrap;html=1;" parent="1" vertex="1">
          <mxGeometry x="694" y="500" width="100" height="30" as="geometry" />
        </mxCell>
        <mxCell id="lk8GdQlvjir3y_zJ8EJS-7" value="&lt;b&gt;&lt;font style=&quot;font-size: 14px;&quot;&gt;:Student&lt;/font&gt;&lt;/b&gt;" style="rounded=0;whiteSpace=wrap;html=1;" parent="1" vertex="1">
          <mxGeometry x="34" y="500" width="100" height="30" as="geometry" />
        </mxCell>
        <mxCell id="lk8GdQlvjir3y_zJ8EJS-8" value="" style="endArrow=classic;html=1;rounded=0;" parent="1" edge="1">
          <mxGeometry width="50" height="50" relative="1" as="geometry">
            <mxPoint x="84" y="580" as="sourcePoint" />
            <mxPoint x="414" y="580" as="targetPoint" />
          </mxGeometry>
        </mxCell>
        <mxCell id="lk8GdQlvjir3y_zJ8EJS-9" value="Enters&amp;nbsp;user name and password" style="edgeLabel;html=1;align=center;verticalAlign=middle;resizable=0;points=[];" parent="lk8GdQlvjir3y_zJ8EJS-8" vertex="1" connectable="0">
          <mxGeometry x="-0.0083" y="3" relative="1" as="geometry">
            <mxPoint as="offset" />
          </mxGeometry>
        </mxCell>
        <mxCell id="lk8GdQlvjir3y_zJ8EJS-10" value="" style="endArrow=classic;html=1;rounded=0;dashed=1;" parent="1" edge="1">
          <mxGeometry width="50" height="50" relative="1" as="geometry">
            <mxPoint x="414" y="620" as="sourcePoint" />
            <mxPoint x="84" y="620" as="targetPoint" />
          </mxGeometry>
        </mxCell>
        <mxCell id="lk8GdQlvjir3y_zJ8EJS-11" value="User name and password accepted or denied" style="edgeLabel;html=1;align=center;verticalAlign=middle;resizable=0;points=[];" parent="lk8GdQlvjir3y_zJ8EJS-10" vertex="1" connectable="0">
          <mxGeometry x="-0.006" y="3" relative="1" as="geometry">
            <mxPoint as="offset" />
          </mxGeometry>
        </mxCell>
        <mxCell id="lk8GdQlvjir3y_zJ8EJS-12" value="loop" style="shape=umlFrame;whiteSpace=wrap;html=1;pointerEvents=0;" parent="1" vertex="1">
          <mxGeometry x="44" y="720" width="400" height="120" as="geometry" />
        </mxCell>
        <mxCell id="lk8GdQlvjir3y_zJ8EJS-13" value="" style="endArrow=classic;html=1;rounded=0;" parent="1" edge="1">
          <mxGeometry width="50" height="50" relative="1" as="geometry">
            <mxPoint x="84" y="760" as="sourcePoint" />
            <mxPoint x="414" y="760" as="targetPoint" />
          </mxGeometry>
        </mxCell>
        <mxCell id="lk8GdQlvjir3y_zJ8EJS-14" value="Select classes" style="edgeLabel;html=1;align=center;verticalAlign=middle;resizable=0;points=[];" parent="lk8GdQlvjir3y_zJ8EJS-13" vertex="1" connectable="0">
          <mxGeometry x="-0.0083" y="3" relative="1" as="geometry">
            <mxPoint as="offset" />
          </mxGeometry>
        </mxCell>
        <mxCell id="lk8GdQlvjir3y_zJ8EJS-17" value="" style="endArrow=classic;html=1;rounded=0;" parent="1" edge="1">
          <mxGeometry width="50" height="50" relative="1" as="geometry">
            <mxPoint x="84" y="880" as="sourcePoint" />
            <mxPoint x="414" y="880" as="targetPoint" />
          </mxGeometry>
        </mxCell>
        <mxCell id="lk8GdQlvjir3y_zJ8EJS-18" value="Submits the draft" style="edgeLabel;html=1;align=center;verticalAlign=middle;resizable=0;points=[];" parent="lk8GdQlvjir3y_zJ8EJS-17" vertex="1" connectable="0">
          <mxGeometry x="-0.0083" y="3" relative="1" as="geometry">
            <mxPoint as="offset" />
          </mxGeometry>
        </mxCell>
        <mxCell id="lk8GdQlvjir3y_zJ8EJS-19" value="" style="endArrow=classic;html=1;rounded=0;" parent="1" edge="1">
          <mxGeometry width="50" height="50" relative="1" as="geometry">
            <mxPoint x="414" y="1000" as="sourcePoint" />
            <mxPoint x="744" y="1000" as="targetPoint" />
          </mxGeometry>
        </mxCell>
        <mxCell id="lk8GdQlvjir3y_zJ8EJS-20" value="View drafts" style="edgeLabel;html=1;align=center;verticalAlign=middle;resizable=0;points=[];" parent="lk8GdQlvjir3y_zJ8EJS-19" vertex="1" connectable="0">
          <mxGeometry x="-0.0083" y="3" relative="1" as="geometry">
            <mxPoint as="offset" />
          </mxGeometry>
        </mxCell>
        <mxCell id="lk8GdQlvjir3y_zJ8EJS-21" value="" style="endArrow=classic;html=1;rounded=0;dashed=1;" parent="1" edge="1">
          <mxGeometry width="50" height="50" relative="1" as="geometry">
            <mxPoint x="744" y="1040" as="sourcePoint" />
            <mxPoint x="414" y="1040" as="targetPoint" />
          </mxGeometry>
        </mxCell>
        <mxCell id="lk8GdQlvjir3y_zJ8EJS-22" value="Send acceptance or rejection message" style="edgeLabel;html=1;align=center;verticalAlign=middle;resizable=0;points=[];" parent="lk8GdQlvjir3y_zJ8EJS-21" vertex="1" connectable="0">
          <mxGeometry x="0.0236" y="3" relative="1" as="geometry">
            <mxPoint x="-1" as="offset" />
          </mxGeometry>
        </mxCell>
        <mxCell id="RpjjUDM6sSoc0zHJ858f-2" value="" style="endArrow=classic;html=1;rounded=0;" edge="1" parent="1">
          <mxGeometry width="50" height="50" relative="1" as="geometry">
            <mxPoint x="84" y="680" as="sourcePoint" />
            <mxPoint x="414" y="680" as="targetPoint" />
          </mxGeometry>
        </mxCell>
        <mxCell id="RpjjUDM6sSoc0zHJ858f-3" value="Opens&amp;nbsp;register to a course tab" style="edgeLabel;html=1;align=center;verticalAlign=middle;resizable=0;points=[];" vertex="1" connectable="0" parent="RpjjUDM6sSoc0zHJ858f-2">
          <mxGeometry x="-0.0083" y="3" relative="1" as="geometry">
            <mxPoint as="offset" />
          </mxGeometry>
        </mxCell>
        <mxCell id="RpjjUDM6sSoc0zHJ858f-4" value="" style="endArrow=classic;html=1;rounded=0;" edge="1" parent="1">
          <mxGeometry width="50" height="50" relative="1" as="geometry">
            <mxPoint x="414" y="960" as="sourcePoint" />
            <mxPoint x="83" y="960" as="targetPoint" />
          </mxGeometry>
        </mxCell>
        <mxCell id="RpjjUDM6sSoc0zHJ858f-5" value="Logs out" style="edgeLabel;html=1;align=center;verticalAlign=middle;resizable=0;points=[];" vertex="1" connectable="0" parent="RpjjUDM6sSoc0zHJ858f-4">
          <mxGeometry x="-0.0083" y="3" relative="1" as="geometry">
            <mxPoint as="offset" />
          </mxGeometry>
        </mxCell>
        <mxCell id="RpjjUDM6sSoc0zHJ858f-6" value="" style="endArrow=classic;html=1;rounded=0;dashed=1;" edge="1" parent="1">
          <mxGeometry width="50" height="50" relative="1" as="geometry">
            <mxPoint x="79" y="920" as="sourcePoint" />
            <mxPoint x="413" y="920" as="targetPoint" />
          </mxGeometry>
        </mxCell>
        <mxCell id="RpjjUDM6sSoc0zHJ858f-7" value="Opens&amp;nbsp;transcript tab" style="edgeLabel;html=1;align=center;verticalAlign=middle;resizable=0;points=[];" vertex="1" connectable="0" parent="RpjjUDM6sSoc0zHJ858f-6">
          <mxGeometry x="-0.006" y="3" relative="1" as="geometry">
            <mxPoint as="offset" />
          </mxGeometry>
        </mxCell>
        <mxCell id="RpjjUDM6sSoc0zHJ858f-12" value="" style="endArrow=classic;html=1;rounded=0;dashed=1;" edge="1" parent="1">
          <mxGeometry width="50" height="50" relative="1" as="geometry">
            <mxPoint x="414" y="800" as="sourcePoint" />
            <mxPoint x="84" y="800" as="targetPoint" />
          </mxGeometry>
        </mxCell>
        <mxCell id="RpjjUDM6sSoc0zHJ858f-13" value="Classes added or denied to the draft&amp;nbsp;" style="edgeLabel;html=1;align=center;verticalAlign=middle;resizable=0;points=[];" vertex="1" connectable="0" parent="RpjjUDM6sSoc0zHJ858f-12">
          <mxGeometry x="0.0236" y="3" relative="1" as="geometry">
            <mxPoint x="-1" as="offset" />
          </mxGeometry>
        </mxCell>
      </root>
    </mxGraphModel>
  </diagram>
  <diagram id="n6XeZ6R0EXYJbb1oG_0p" name="Sayfa -2">
    <mxGraphModel dx="1105" dy="558" grid="1" gridSize="10" guides="1" tooltips="1" connect="1" arrows="1" fold="1" page="1" pageScale="1" pageWidth="827" pageHeight="1169" math="0" shadow="0">
      <root>
        <mxCell id="0" />
        <mxCell id="1" parent="0" />
        <mxCell id="lSCJ9V6UI3-VJrPs-bwZ-1" value="" style="shape=umlActor;verticalLabelPosition=bottom;verticalAlign=top;html=1;outlineConnect=0;" vertex="1" parent="1">
          <mxGeometry x="67" y="490" width="32" height="60" as="geometry" />
        </mxCell>
        <mxCell id="lSCJ9V6UI3-VJrPs-bwZ-2" value="" style="endArrow=none;dashed=1;html=1;rounded=0;" edge="1" parent="1">
          <mxGeometry width="50" height="50" relative="1" as="geometry">
            <mxPoint x="83.47000000000003" y="580" as="sourcePoint" />
            <mxPoint x="83" y="1130" as="targetPoint" />
          </mxGeometry>
        </mxCell>
        <mxCell id="lSCJ9V6UI3-VJrPs-bwZ-3" value="" style="endArrow=none;dashed=1;html=1;rounded=0;" edge="1" parent="1">
          <mxGeometry width="50" height="50" relative="1" as="geometry">
            <mxPoint x="416.25" y="580" as="sourcePoint" />
            <mxPoint x="416" y="1130" as="targetPoint" />
          </mxGeometry>
        </mxCell>
        <mxCell id="lSCJ9V6UI3-VJrPs-bwZ-4" value="" style="endArrow=none;dashed=1;html=1;rounded=0;" edge="1" parent="1">
          <mxGeometry width="50" height="50" relative="1" as="geometry">
            <mxPoint x="744" y="580" as="sourcePoint" />
            <mxPoint x="744" y="1130" as="targetPoint" />
          </mxGeometry>
        </mxCell>
        <mxCell id="lSCJ9V6UI3-VJrPs-bwZ-5" value="&lt;b style=&quot;border-color: var(--border-color);&quot;&gt;&lt;font style=&quot;border-color: var(--border-color); font-size: 14px;&quot;&gt;:System&lt;/font&gt;&lt;/b&gt;" style="rounded=0;whiteSpace=wrap;html=1;" vertex="1" parent="1">
          <mxGeometry x="367.5" y="550" width="100" height="30" as="geometry" />
        </mxCell>
        <mxCell id="lSCJ9V6UI3-VJrPs-bwZ-6" value="&lt;b style=&quot;border-color: var(--border-color);&quot;&gt;&lt;font style=&quot;border-color: var(--border-color); font-size: 14px;&quot;&gt;:Student&lt;/font&gt;&lt;/b&gt;" style="rounded=0;whiteSpace=wrap;html=1;" vertex="1" parent="1">
          <mxGeometry x="694" y="550" width="100" height="30" as="geometry" />
        </mxCell>
        <mxCell id="lSCJ9V6UI3-VJrPs-bwZ-7" value="&lt;b&gt;&lt;font style=&quot;font-size: 14px;&quot;&gt;:Advisor&lt;/font&gt;&lt;/b&gt;" style="rounded=0;whiteSpace=wrap;html=1;" vertex="1" parent="1">
          <mxGeometry x="34" y="550" width="100" height="30" as="geometry" />
        </mxCell>
        <mxCell id="lSCJ9V6UI3-VJrPs-bwZ-8" value="" style="endArrow=classic;html=1;rounded=0;" edge="1" parent="1">
          <mxGeometry width="50" height="50" relative="1" as="geometry">
            <mxPoint x="84" y="680" as="sourcePoint" />
            <mxPoint x="414" y="680" as="targetPoint" />
          </mxGeometry>
        </mxCell>
        <mxCell id="lSCJ9V6UI3-VJrPs-bwZ-9" value="Enters&amp;nbsp;user name and password" style="edgeLabel;html=1;align=center;verticalAlign=middle;resizable=0;points=[];" vertex="1" connectable="0" parent="lSCJ9V6UI3-VJrPs-bwZ-8">
          <mxGeometry x="-0.0083" y="3" relative="1" as="geometry">
            <mxPoint as="offset" />
          </mxGeometry>
        </mxCell>
        <mxCell id="lSCJ9V6UI3-VJrPs-bwZ-10" value="" style="endArrow=classic;html=1;rounded=0;dashed=1;" edge="1" parent="1">
          <mxGeometry width="50" height="50" relative="1" as="geometry">
            <mxPoint x="414" y="720" as="sourcePoint" />
            <mxPoint x="84" y="720" as="targetPoint" />
          </mxGeometry>
        </mxCell>
        <mxCell id="lSCJ9V6UI3-VJrPs-bwZ-11" value="User name and password accepted or denied" style="edgeLabel;html=1;align=center;verticalAlign=middle;resizable=0;points=[];" vertex="1" connectable="0" parent="lSCJ9V6UI3-VJrPs-bwZ-10">
          <mxGeometry x="-0.006" y="3" relative="1" as="geometry">
            <mxPoint as="offset" />
          </mxGeometry>
        </mxCell>
        <mxCell id="lSCJ9V6UI3-VJrPs-bwZ-12" value="loop" style="shape=umlFrame;whiteSpace=wrap;html=1;pointerEvents=0;" vertex="1" parent="1">
          <mxGeometry x="44" y="820" width="400" height="120" as="geometry" />
        </mxCell>
        <mxCell id="lSCJ9V6UI3-VJrPs-bwZ-13" value="" style="endArrow=classic;html=1;rounded=0;" edge="1" parent="1">
          <mxGeometry width="50" height="50" relative="1" as="geometry">
            <mxPoint x="420" y="860" as="sourcePoint" />
            <mxPoint x="80" y="860" as="targetPoint" />
          </mxGeometry>
        </mxCell>
        <mxCell id="lSCJ9V6UI3-VJrPs-bwZ-29" value="Views courses" style="edgeLabel;html=1;align=center;verticalAlign=middle;resizable=0;points=[];" vertex="1" connectable="0" parent="lSCJ9V6UI3-VJrPs-bwZ-13">
          <mxGeometry x="0.0176" y="-4" relative="1" as="geometry">
            <mxPoint as="offset" />
          </mxGeometry>
        </mxCell>
        <mxCell id="lSCJ9V6UI3-VJrPs-bwZ-15" value="" style="endArrow=classic;html=1;rounded=0;" edge="1" parent="1">
          <mxGeometry width="50" height="50" relative="1" as="geometry">
            <mxPoint x="84" y="980" as="sourcePoint" />
            <mxPoint x="414" y="980" as="targetPoint" />
          </mxGeometry>
        </mxCell>
        <mxCell id="lSCJ9V6UI3-VJrPs-bwZ-16" value="Submits the draft" style="edgeLabel;html=1;align=center;verticalAlign=middle;resizable=0;points=[];" vertex="1" connectable="0" parent="lSCJ9V6UI3-VJrPs-bwZ-15">
          <mxGeometry x="-0.0083" y="3" relative="1" as="geometry">
            <mxPoint as="offset" />
          </mxGeometry>
        </mxCell>
        <mxCell id="lSCJ9V6UI3-VJrPs-bwZ-21" value="" style="endArrow=classic;html=1;rounded=0;" edge="1" parent="1">
          <mxGeometry width="50" height="50" relative="1" as="geometry">
            <mxPoint x="84" y="780" as="sourcePoint" />
            <mxPoint x="414" y="780" as="targetPoint" />
          </mxGeometry>
        </mxCell>
        <mxCell id="lSCJ9V6UI3-VJrPs-bwZ-22" value="Opens&amp;nbsp;approve student registrations tab" style="edgeLabel;html=1;align=center;verticalAlign=middle;resizable=0;points=[];" vertex="1" connectable="0" parent="lSCJ9V6UI3-VJrPs-bwZ-21">
          <mxGeometry x="-0.0083" y="3" relative="1" as="geometry">
            <mxPoint as="offset" />
          </mxGeometry>
        </mxCell>
        <mxCell id="lSCJ9V6UI3-VJrPs-bwZ-23" value="" style="endArrow=classic;html=1;rounded=0;" edge="1" parent="1">
          <mxGeometry width="50" height="50" relative="1" as="geometry">
            <mxPoint x="414" y="1060" as="sourcePoint" />
            <mxPoint x="83" y="1060" as="targetPoint" />
          </mxGeometry>
        </mxCell>
        <mxCell id="lSCJ9V6UI3-VJrPs-bwZ-24" value="Logs out" style="edgeLabel;html=1;align=center;verticalAlign=middle;resizable=0;points=[];" vertex="1" connectable="0" parent="lSCJ9V6UI3-VJrPs-bwZ-23">
          <mxGeometry x="-0.0083" y="3" relative="1" as="geometry">
            <mxPoint as="offset" />
          </mxGeometry>
        </mxCell>
        <mxCell id="lSCJ9V6UI3-VJrPs-bwZ-25" value="" style="endArrow=classic;html=1;rounded=0;dashed=1;" edge="1" parent="1">
          <mxGeometry width="50" height="50" relative="1" as="geometry">
            <mxPoint x="79" y="1020" as="sourcePoint" />
            <mxPoint x="413" y="1020" as="targetPoint" />
          </mxGeometry>
        </mxCell>
        <mxCell id="lSCJ9V6UI3-VJrPs-bwZ-26" value="Opens profession tab" style="edgeLabel;html=1;align=center;verticalAlign=middle;resizable=0;points=[];" vertex="1" connectable="0" parent="lSCJ9V6UI3-VJrPs-bwZ-25">
          <mxGeometry x="-0.006" y="3" relative="1" as="geometry">
            <mxPoint as="offset" />
          </mxGeometry>
        </mxCell>
        <mxCell id="lSCJ9V6UI3-VJrPs-bwZ-27" value="" style="endArrow=classic;html=1;rounded=0;dashed=1;" edge="1" parent="1">
          <mxGeometry width="50" height="50" relative="1" as="geometry">
            <mxPoint x="80" y="900" as="sourcePoint" />
            <mxPoint x="420" y="900" as="targetPoint" />
          </mxGeometry>
        </mxCell>
        <mxCell id="lSCJ9V6UI3-VJrPs-bwZ-28" value="Courses accepted or denied" style="edgeLabel;html=1;align=center;verticalAlign=middle;resizable=0;points=[];" vertex="1" connectable="0" parent="lSCJ9V6UI3-VJrPs-bwZ-27">
          <mxGeometry x="0.0236" y="3" relative="1" as="geometry">
            <mxPoint x="-1" as="offset" />
          </mxGeometry>
        </mxCell>
        <mxCell id="9yFr_CiFMR95WXkNYWwu-3" value="" style="endArrow=classic;html=1;rounded=0;" edge="1" parent="1">
          <mxGeometry width="50" height="50" relative="1" as="geometry">
            <mxPoint x="754" y="640" as="sourcePoint" />
            <mxPoint x="414" y="640" as="targetPoint" />
          </mxGeometry>
        </mxCell>
        <mxCell id="9yFr_CiFMR95WXkNYWwu-4" value="Submits the draft" style="edgeLabel;html=1;align=center;verticalAlign=middle;resizable=0;points=[];" vertex="1" connectable="0" parent="9yFr_CiFMR95WXkNYWwu-3">
          <mxGeometry x="0.0176" y="-4" relative="1" as="geometry">
            <mxPoint as="offset" />
          </mxGeometry>
        </mxCell>
      </root>
    </mxGraphModel>
  </diagram>
</mxfile>
